Normalized EMG Linear Envelopes
nRows=110
nColumns=4

endheader
time	 med_gas_r	  soleus_r	 tib_ant_r	
3.72177	  0.008223	  0.021496	  0.002397	
3.79335	  0.007983	  0.021914	  0.002448	
3.86492	  0.007683	  0.021711	  0.002445	
3.93649	  0.007525	  0.021144	  0.002444	
4.00806	  0.007402	  0.021078	  0.002444	
4.07964	  0.007198	  0.021165	  0.002391	
4.15121	  0.006987	  0.020699	  0.002308	
4.22278	  0.006962	  0.020448	  0.002274	
4.29435	  0.006902	  0.020153	  0.002267	
4.36593	  0.006656	  0.019197	  0.002250	
4.4375	  0.006239	  0.018233	  0.002238	
4.50907	  0.006020	  0.017947	  0.002239	
4.58065	  0.006106	  0.018640	  0.002250	
4.65222	  0.006309	  0.019377	  0.002265	
4.72379	  0.006427	  0.019469	  0.002302	
4.79536	  0.006607	  0.019507	  0.002379	
4.86694	  0.007049	  0.020113	  0.002507	
4.93851	  0.007778	  0.020655	  0.002625	
5.01008	  0.008333	  0.020401	  0.002706	
5.08165	  0.008454	  0.020083	  0.002663	
5.15323	  0.008253	  0.020267	  0.002492	
5.2248	  0.008007	  0.021240	  0.002298	
5.29637	  0.007779	  0.022174	  0.002211	
5.36794	  0.007363	  0.022109	  0.002256	
5.43952	  0.006901	  0.022142	  0.002375	
5.51109	  0.006665	  0.023420	  0.002513	
5.58266	  0.006792	  0.025639	  0.002607	
5.65423	  0.007071	  0.024982	  0.002586	
5.72581	  0.007307	  0.021857	  0.002503	
5.79738	  0.007184	  0.020234	  0.002402	
5.86895	  0.006231	  0.020850	  0.002289	
5.94052	  0.003693	  0.021565	  0.002155	
6.0121	 -0.000623	  0.020337	  0.002014	
6.08367	 -0.004796	  0.018614	  0.002089	
6.15524	 -0.002667	  0.020433	  0.003019	
6.22681	  0.018616	  0.034459	  0.005963	
6.29839	  0.075481	  0.071774	  0.011786	
6.36996	  0.173030	  0.131804	  0.019104	
6.44153	  0.280466	  0.192573	  0.024305	
6.5131	  0.368510	  0.234326	  0.025306	
6.58468	  0.464145	  0.268702	  0.026014	
6.65625	  0.557910	  0.297856	  0.029379	
6.72782	  0.602752	  0.327507	  0.033865	
6.7994	  0.595164	  0.354988	  0.037794	
6.87097	  0.565950	  0.368642	  0.040388	
6.94254	  0.549150	  0.367523	  0.040332	
7.01411	  0.568590	  0.349651	  0.038949	
7.08569	  0.624630	  0.337989	  0.038311	
7.15726	  0.682241	  0.341220	  0.038199	
7.22883	  0.716792	  0.361722	  0.039427	
7.3004	  0.747364	  0.385896	  0.042371	
7.37198	  0.761385	  0.408544	  0.045532	
7.44355	  0.744893	  0.438919	  0.047895	
7.51512	  0.716872	  0.479066	  0.049577	
7.58669	  0.685904	  0.528352	  0.049971	
7.65827	  0.664364	  0.567399	  0.049522	
7.72984	  0.660813	  0.587193	  0.047474	
7.80141	  0.667482	  0.585875	  0.046515	
7.87298	  0.680239	  0.580626	  0.048318	
7.94456	  0.684455	  0.582508	  0.050982	
8.01613	  0.689599	  0.612250	  0.051879	
8.0877	  0.698060	  0.669982	  0.052082	
8.15927	  0.719089	  0.730684	  0.053523	
8.23085	  0.734623	  0.758983	  0.055852	
8.30242	  0.707776	  0.736114	  0.057628	
8.37399	  0.655369	  0.679119	  0.056073	
8.44556	  0.624319	  0.634322	  0.052752	
8.51714	  0.631755	  0.617480	  0.051163	
8.58871	  0.662533	  0.599995	  0.052607	
8.66028	  0.702711	  0.576272	  0.056312	
8.73185	  0.747085	  0.569387	  0.060428	
8.80343	  0.767304	  0.590494	  0.062006	
8.875	  0.766654	  0.632483	  0.062094	
8.94657	  0.746488	  0.675672	  0.062492	
9.01815	  0.709795	  0.687254	  0.062897	
9.08972	  0.661732	  0.653534	  0.062104	
9.16129	  0.633689	  0.621737	  0.060641	
9.23286	  0.628646	  0.624392	  0.058700	
9.30444	  0.635681	  0.655034	  0.055797	
9.37601	  0.648823	  0.680017	  0.053076	
9.44758	  0.657470	  0.686246	  0.052308	
9.51915	  0.669543	  0.675917	  0.054050	
9.59073	  0.698169	  0.650761	  0.057252	
9.6623	  0.719892	  0.659418	  0.060329	
9.73387	  0.711935	  0.735711	  0.063938	
9.80544	  0.701021	  0.820631	  0.067165	
9.87702	  0.696030	  0.835871	  0.066681	
9.94859	  0.682951	  0.797016	  0.062821	
10.0202	  0.667951	  0.758267	  0.060203	
10.0917	  0.650691	  0.742054	  0.060974	
10.1633	  0.636859	  0.742949	  0.064276	
10.2349	  0.635331	  0.753629	  0.067586	
10.3065	  0.639867	  0.747503	  0.067018	
10.378	  0.636769	  0.716830	  0.062001	
10.4496	  0.605519	  0.675121	  0.055226	
10.5212	  0.533835	  0.634399	  0.050015	
10.5927	  0.429087	  0.603910	  0.046478	
10.6643	  0.319571	  0.573041	  0.044038	
10.7359	  0.228570	  0.526882	  0.043595	
10.8075	  0.159182	  0.466292	  0.048686	
10.879	  0.105291	  0.399936	  0.058301	
10.9506	  0.068083	  0.337535	  0.068483	
11.0222	  0.048009	  0.289820	  0.075735	
11.0937	  0.038850	  0.261881	  0.075572	
11.1653	  0.035297	  0.242392	  0.074291	
11.2369	  0.034330	  0.226342	  0.077351	
11.3085	  0.033885	  0.213860	  0.085619	
11.38	  0.033981	  0.209996	  0.092333	
11.4516	  0.034711	  0.206269	  0.094107	
11.5232	  0.035110	  0.197634	  0.097149	
